<svg xmlns="http://www.w3.org/2000/svg" viewBox="0 0 594.1 91.7" style="enable-background:new 0 0 594.1 91.7" xml:space="preserve"><path d="M0 90.7h21V55.9h26.2V39.6H21V21.4h35V4.7H0zM88 33.7V22.3H67v68.4h21V59c0-5.6 1.3-9.6 3.9-11.8 2.6-2.2 6.5-3.4 11.8-3.4h5.8V21.6c-4.5 0-8.6 1.1-12.3 3.2-3.7 2.2-6.7 5.1-9.2 8.9zM167.5 25.5c-5.1-2.8-11-4.2-17.6-4.2-6.8 0-12.8 1.4-18 4.3-5.2 2.9-9.3 6.9-12.2 12.3-2.9 5.3-4.4 11.5-4.4 18.6 0 7.1 1.5 13.3 4.4 18.6 2.9 5.3 7 9.4 12.3 12.3 5.2 2.9 11.2 4.3 17.9 4.3 5.6 0 10.6-1 15.1-3.1 4.5-2 8.2-4.9 11.2-8.5 3-3.6 5-7.6 6.2-12.1h-22.3c-2 4.4-5.7 6.6-10.9 6.6-3.5 0-6.5-1.1-8.9-3.4-2.4-2.2-3.8-5.5-4.1-9.7h47.4c.2-2.1.4-4.2.4-6.1 0-6.9-1.5-12.9-4.4-18-2.9-5.2-6.9-9.1-12.1-11.9zm-31.2 24.4c.6-3.8 2.1-6.7 4.5-8.7 2.4-2 5.4-3.1 8.9-3.1 3.7 0 6.7 1.1 9.2 3.2 2.5 2.1 3.7 5 3.7 8.6h-26.3zM242.1 31.7c-2.1-3.2-5-5.7-8.8-7.6-3.7-1.9-7.8-2.8-12.3-2.8-5.6 0-10.7 1.4-15.3 4.3-4.6 2.9-8.2 6.9-10.8 12.3-2.7 5.3-4 11.5-4 18.5s1.3 13.2 4 18.6c2.7 5.4 6.3 9.5 10.8 12.4 4.6 2.9 9.7 4.4 15.3 4.4 4.8 0 9-1 12.7-2.9 3.6-2 6.4-4.6 8.4-7.8v9.8h21V0h-21v31.7zm-4.4 37.2c-2.9 3-6.4 4.5-10.6 4.5-4.2 0-7.7-1.5-10.6-4.6-2.9-3.1-4.4-7.2-4.4-12.4s1.4-9.3 4.4-12.3c2.9-3 6.4-4.5 10.6-4.5 4.2 0 7.7 1.5 10.6 4.5 2.9 3 4.4 7.2 4.4 12.4s-1.5 9.4-4.4 12.4zM353.9 45c-3.5-1.7-8-3.5-13.5-5.4-5.6-1.8-9.6-3.5-12.3-5-2.6-1.6-3.9-3.7-3.9-6.5 0-2.5.8-4.5 2.3-5.8 1.6-1.3 3.6-2 6.1-2 2.9 0 5.4.8 7.2 2.4 1.9 1.6 2.9 3.8 3.1 6.6h22.7c-.4-8.1-3.5-14.4-9.3-18.9-5.8-4.5-13.4-6.8-22.9-6.8-9.3 0-16.9 2.3-22.7 6.8C304.9 14.8 302 21 302 29c0 5.4 1.3 9.8 3.8 13.1 2.5 3.4 5.6 5.9 9.1 7.6 3.5 1.7 8 3.4 13.6 5.1 3.8 1.1 6.8 2.2 8.9 3.1 2.1.9 3.8 2 5.3 3.4 1.4 1.4 2.1 3.1 2.1 5.3 0 2.5-.9 4.5-2.7 5.9-1.8 1.4-4.2 2.1-7.4 2.1-3 0-5.5-.8-7.4-2.5-1.9-1.7-3-4.1-3.3-7.3h-22.3c.2 5.6 1.7 10.5 4.7 14.5s7 7 12 9.1c5 2 10.6 3.1 16.9 3.1 6.5 0 12.1-1.2 16.8-3.6 4.7-2.4 8.4-5.6 10.8-9.6 2.5-4 3.7-8.5 3.7-13.4 0-5.1-1.3-9.4-3.8-12.6-2.4-3.1-5.4-5.6-8.9-7.3zM429.1 25.6c-5.4-2.9-11.4-4.3-18.1-4.3-6.7 0-12.7 1.4-18.1 4.3-5.4 2.9-9.6 7-12.7 12.3-3.1 5.4-4.7 11.5-4.7 18.6 0 7.1 1.5 13.3 4.6 18.6 3.1 5.3 7.3 9.4 12.6 12.3 5.4 2.9 11.4 4.3 18.1 4.3 6.7 0 12.8-1.4 18.2-4.3 5.4-2.9 9.7-7 12.9-12.3 3.1-5.4 4.7-11.5 4.7-18.6 0-7-1.6-13.2-4.7-18.6-3.2-5.3-7.4-9.4-12.8-12.3zM421 69.1c-2.8 2.9-6.2 4.4-10.2 4.4-4 0-7.3-1.5-10-4.4-2.7-2.9-4-7.1-4-12.6 0-5.6 1.3-9.8 4-12.7 2.7-2.9 6.1-4.4 10.2-4.4 4 0 7.4 1.5 10.1 4.4 2.7 2.9 4.1 7.2 4.1 12.6 0 5.6-1.4 9.8-4.2 12.7zM501.1 53.4c-3.2-1.3-7.3-2.6-12.4-3.9-4.4-1-7.7-2-9.7-2.9-2.1-1-3.1-2.5-3.1-4.4 0-1.6.7-2.9 2-3.9 1.3-.9 3.2-1.4 5.6-1.4 2.9 0 5.2.7 6.9 2.1 1.8 1.4 2.8 3.3 3.1 5.6h19.4c-.7-7-3.6-12.7-8.5-16.9-4.9-4.2-11.7-6.4-20.3-6.4-5.8 0-10.8.9-15 2.8-4.2 1.9-7.4 4.4-9.6 7.7-2.2 3.2-3.2 6.8-3.2 10.7 0 4.7 1.2 8.4 3.6 11.1 2.4 2.7 5.2 4.7 8.5 6 3.3 1.3 7.4 2.5 12.3 3.6 4.6 1.1 7.9 2.2 9.9 3.1 2 .9 3.1 2.4 3.1 4.4 0 1.6-.7 3-2.1 4-1.4 1-3.5 1.5-6.1 1.5-2.9 0-5.3-.7-7.2-2.2s-3.1-3.4-3.3-5.8h-21c.3 4.4 1.8 8.4 4.5 12s6.4 6.4 11 8.4c4.7 2 10 3.1 15.9 3.1 5.6 0 10.4-.9 14.6-2.7 4.2-1.8 7.4-4.3 9.7-7.4 2.2-3.1 3.4-6.7 3.4-10.7-.1-4.7-1.3-8.5-3.7-11.3-2.4-2.9-5.2-5-8.3-6.2zM573.1 22.3V32c-2-3.2-4.8-5.8-8.4-7.7-3.6-2-7.9-2.9-12.7-2.9-5.6 0-10.7 1.4-15.3 4.3-4.6 2.9-8.2 6.9-10.8 12.3-2.7 5.3-4 11.5-4 18.5s1.3 13.2 4 18.6c2.7 5.4 6.3 9.5 10.8 12.4 4.6 2.9 9.6 4.4 15.2 4.4 4.8 0 9-1 12.7-2.9 3.6-2 6.5-4.5 8.5-7.7V91h21V22.3h-21zm-4.3 46.6c-2.9 3-6.4 4.5-10.6 4.5s-7.7-1.5-10.6-4.6c-2.9-3.1-4.4-7.2-4.4-12.4s1.5-9.3 4.4-12.3c2.9-3 6.4-4.5 10.6-4.5s7.7 1.5 10.6 4.5c2.9 3 4.4 7.2 4.4 12.4-.1 5.2-1.5 9.4-4.4 12.4z"/></svg>